# xmcd
# 
# Track frame offsets:
#     150
#     16533
#     37948
#     56613
#     82850
#     100803
#     120210
#     141645
#     164880
#     181240
# 
# Disc length: 2572
# 
# Revision: 5
# Processed by: cddbd v1.5.2PL0 Copyright (c) Steve Scherf et al.
# Submitted via: fre:ac v1.0.17
# 
DISCID=750a0a0a
DTITLE=SOUTHERN ALL STARS - KAMAKURA [CD2]
DYEAR=1985
DGENRE=Rock
TTITLE0=顔
TTITLE1=Bye Bye My Love (U Are The One)
TTITLE2=Brown Cherry
TTITLE3=Please!
TTITLE4=星空のビリー・ホリディ
TTITLE5=最後の日射病
TTITLE6=夕陽に別れを告げて〜メリーオーランド
TTITLE7=怪物君の空
TTITLE8=Long-haired Lady
TTITLE9=悲しみはメリーゴーランド
EXTD=YEAR: 1985
EXTT0=
EXTT1=
EXTT2=
EXTT3=
EXTT4=
EXTT5=
EXTT6=
EXTT7=
EXTT8=
EXTT9=
PLAYORDER=
